# xmcd
#
# Track frame offsets: 
#        150
#        10653
#        33266
#        46912
#        62929
#        88380
#        101201
#        118394
#        134686
#        148420
#        166712
#        186163
#        202726
#        229398
#        245048
#
# Disc length: 3481 seconds
#
# Revision: 0
# Processed by: cddbd v1.5.2PL0 Copyright (c) Steve Scherf et al.
# Submitted via: ExactAudioCopyFreeDBPlugin 1.0
#
DISCID=e10d970f
DTITLE=Chris Clarke - Pale Moonlight Blues
DYEAR=2011
DGENRE=Blues
TTITLE0=Caroline
TTITLE1=The 4th of July
TTITLE2=Pale Moonlight Blues
TTITLE3=High on a Mountain
TTITLE4=Midnight on the Stormy Deep
TTITLE5=East Virginia Blues
TTITLE6=And Going Away
TTITLE7=Mornin'
TTITLE8=(My) Creole Belle
TTITLE9=This Morning I Am Born Again
TTITLE10=The L&N Don't Stop Here Anymore
TTITLE11=Short Life of Trouble
TTITLE12=Tonapah Station
TTITLE13=Railroading on the Great Divide
TTITLE14=Wesley
EXTD=
EXTT0=
EXTT1=
EXTT2=
EXTT3=
EXTT4=
EXTT5=
EXTT6=
EXTT7=
EXTT8=
EXTT9=
EXTT10=
EXTT11=
EXTT12=
EXTT13=
EXTT14=
PLAYORDER=
